<svg width="263" height="264" viewBox="0 0 263 264" fill="none" xmlns="http://www.w3.org/2000/svg">
<path d="M52.012 94.8951C82.3968 65.6077 102.803 12.9772 160.849 26.8425C183.897 32.3479 184.302 49.0119 222.214 145.287C239.161 188.326 236.303 271.939 98.4394 224.878C-15.5459 185.967 -1.79965 146.763 52.012 94.8951Z" fill="#D53134" fill-opacity="0.7"/>
<path d="M97.738 78.1419C127.283 71.0818 159.171 45.8991 190.102 75.7082C202.384 87.5446 196.546 98.027 184.877 171.587C179.66 204.47 147.335 255.28 79.0337 175.717C22.5624 109.935 45.4128 90.6453 97.738 78.1419Z" fill="#D53134"/>
<path d="M213.666 166.619C189.666 204.119 181.627 263.126 118.666 263.126C93.6663 263.126 89.1661 246.126 26.6667 156.628C-1.27222 116.619 -18.8337 30.1208 134.166 44.6206C260.666 56.6091 256.17 100.206 213.666 166.619Z" fill="#D53134" fill-opacity="0.5"/>
<path d="M84.1048 101.84C81.4648 100.76 78.4648 100.56 75.7448 101.28C75.4248 101.36 75.2648 101.56 75.1448 101.8C74.7048 102.04 74.3448 102.52 74.3448 103.04C74.3848 107.4 74.4248 111.76 74.4248 116.12C74.4648 120.64 74.3048 125.16 74.6648 129.64C74.8248 131.48 77.5448 131.16 77.5848 129.44C77.6248 128.28 77.6648 127.08 77.6648 125.92C78.8248 128.08 80.3848 130.24 83.0248 130.4C86.1848 130.56 88.5048 127.6 90.1448 125.32C90.5448 124.76 89.7848 124.28 89.3848 124.76C87.8248 126.64 85.9848 128.72 83.3048 128.36C81.3448 128.08 80.3048 126.24 79.5048 124.64C82.4248 124.4 85.2248 123.32 87.4648 121.4C89.5048 119.68 90.9848 117.32 91.4248 114.64C92.3448 109.24 89.0648 103.92 84.1048 101.84ZM86.3848 119.12C84.1848 121.28 81.0648 122.28 78.0648 122.76C77.9048 122.76 77.7448 122.84 77.6648 122.96C77.6248 120.68 77.5848 118.44 77.5448 116.16C77.4648 111.8 77.4248 107.4 77.3848 103.04C77.3448 103 77.3448 103 77.3448 103C81.3448 102.4 85.7048 103.88 87.8248 107.44C90.0648 111.2 89.5448 116.08 86.3848 119.12ZM94.7995 112.16C96.5195 112.16 96.5995 109.68 94.8395 109.68C93.1195 109.68 93.0395 112.16 94.7995 112.16ZM100.92 118.32C100.28 119.64 99.6795 121 99.0395 122.32C98.6795 123.04 98.3595 123.76 97.9595 124.44C97.7595 124.76 97.5995 125.08 97.3995 125.36C97.1595 125.68 96.9595 125.8 96.6795 125.88C96.5995 125.84 96.5595 125.8 96.4795 125.72C96.0395 124.88 96.1195 123.6 96.0795 122.72C95.9995 121.8 95.9595 120.92 95.9595 120C95.9195 118.04 95.9195 116.08 96.0795 114.12C96.1195 113.4 95.3595 112.88 94.7195 112.88C94.0795 112.88 93.2395 113.32 93.1595 114.04C92.9195 116.32 92.7995 118.6 92.8795 120.92C92.9195 121.92 92.9595 122.96 93.0795 124C93.1995 125.16 93.2795 126.32 94.1595 127.2C94.9595 128 96.5595 128.56 97.5595 127.72C98.3195 127.04 98.6795 125.88 99.0395 124.96C99.9195 122.8 100.96 120.72 101.72 118.52C101.88 118 101.12 117.84 100.92 118.32ZM117.191 119.16C115.791 121.44 114.071 123.52 112.071 125.24C111.031 126.12 109.791 126.96 108.431 127.24C106.911 127.52 105.231 126.92 104.151 125.8C102.151 123.76 102.111 120.36 102.471 117.68C102.791 115.68 103.471 113.2 105.591 112.44C106.671 112.04 107.751 112.2 108.431 113.2C109.311 114.48 109.191 116.2 109.071 117.64C109.031 118.28 109.351 118.84 110.031 119C110.551 119.16 111.351 118.84 111.391 118.2C111.551 116.36 111.671 114.4 110.831 112.68C110.111 111.2 108.791 110.16 107.191 109.92C103.911 109.44 101.271 112.04 100.431 114.96C99.5108 118 99.2708 121.8 100.751 124.68C101.631 126.4 103.031 127.88 104.831 128.6C106.631 129.32 108.471 128.84 110.111 127.92C111.711 127 113.111 125.6 114.351 124.24C115.671 122.76 116.831 121.16 117.831 119.48C118.071 119.08 117.431 118.8 117.191 119.16ZM134.045 118.28C133.285 119.72 132.565 121.2 131.805 122.64C131.405 123.4 131.005 124.12 130.605 124.84C130.445 125.2 130.005 126.36 129.485 126.6C129.205 125.36 129.245 124.04 129.285 122.76C129.285 121.48 129.405 120.2 129.485 118.88C129.525 117.6 129.565 116.28 129.405 115C129.205 113.56 128.765 111.84 127.725 110.76C125.725 108.64 123.565 111.44 122.565 113.08C121.405 114.92 120.525 116.96 119.805 119C119.605 119.64 119.405 120.28 119.245 120.92C119.245 120.72 119.205 120.52 119.205 120.32C119.205 119.48 119.205 118.64 119.205 117.8C119.205 116.12 119.205 114.48 119.245 112.84C119.325 109.52 119.445 106.24 119.685 102.96C119.725 102.16 119.325 101.48 118.485 101.4C117.805 101.28 116.845 101.8 116.765 102.56C116.445 106.48 116.245 110.36 116.125 114.28C116.085 116.16 116.085 118.04 116.125 119.92C116.125 121.28 116.165 122.64 116.205 124C116.245 125.28 116.245 126.48 116.565 127.72C116.765 128.44 117.725 128.68 118.325 128.48C118.685 128.36 118.965 128.12 119.125 127.84C119.165 127.72 119.205 127.6 119.245 127.52C119.285 127.28 119.285 127.04 119.205 126.84C119.525 126.4 119.365 125.6 119.325 125.08C119.325 124.68 119.325 124.28 119.325 123.88C119.765 122 120.285 120.12 120.965 118.32C121.525 116.92 122.165 115.6 122.965 114.32C123.405 113.68 125.485 110.48 126.365 112.04C126.725 112.72 126.685 113.76 126.685 114.48C126.725 115.4 126.725 116.32 126.685 117.24C126.605 118.8 126.405 120.32 126.285 121.88C126.205 123.4 126.205 124.88 126.485 126.4C126.645 127.28 127.245 128.08 128.125 128.4C129.045 128.72 129.805 128.2 130.365 127.52C130.805 126.92 131.085 126.2 131.365 125.52C131.765 124.72 132.125 123.92 132.525 123.16C133.285 121.6 134.045 120.08 134.805 118.52C135.005 118.08 134.285 117.84 134.045 118.28ZM152.958 117.92C152.438 119.6 151.798 121.24 151.038 122.84C150.678 123.6 150.278 124.4 149.798 125.12C149.638 125.4 149.478 125.68 149.238 125.88C148.478 126.56 148.078 126.48 147.278 125.8C146.798 124.6 146.718 123.2 146.678 121.92C146.678 120.52 146.838 119.16 147.158 117.84C147.278 117.36 147.158 117 146.878 116.76C146.878 116.76 146.878 116.76 146.878 116.72C147.238 113.52 144.838 110.52 141.558 110.24C138.398 110 135.798 112.28 134.278 114.88C132.918 117.28 132.358 120.12 132.798 122.88C133.038 124.28 133.558 125.72 134.558 126.76C136.278 128.4 138.878 128.24 140.598 126.76C142.078 125.52 143.078 123.92 143.878 122.2C143.878 122.56 143.918 122.92 143.918 123.28C143.998 124.36 144.158 125.48 144.678 126.44C145.198 127.4 146.278 128.2 147.398 128.24C147.958 128.24 148.558 128 148.998 127.72C150.438 126.84 151.078 125 151.718 123.52C152.518 121.72 153.158 119.92 153.718 118.04C153.838 117.56 153.078 117.52 152.958 117.92ZM144.438 117.36C144.278 118.04 144.118 118.76 144.038 119.48C143.358 121.08 142.558 122.76 141.398 123.96C140.398 124.96 138.278 126.56 136.838 125.48C136.158 124.96 135.918 123.96 135.758 123.2C134.958 119.56 136.238 114.8 139.798 113.04C142.118 111.84 144.838 113.72 144.718 116.32C144.718 116.44 144.758 116.6 144.798 116.72C144.638 116.88 144.518 117.08 144.438 117.36ZM165.183 115.52C163.423 115.2 162.943 113.12 162.103 111.84C161.623 111.08 160.943 110.32 160.023 110.28C158.223 110.2 157.543 112.52 157.143 113.84C156.103 117.04 155.783 120.4 154.943 123.64C154.983 122.32 154.943 120.96 154.943 119.64C154.903 116.8 154.863 114 154.863 111.16C154.863 109.8 152.303 109.72 152.263 111.08C152.183 113.76 152.143 116.44 152.063 119.12C152.023 120.44 152.023 121.76 152.023 123.08C152.023 123.72 151.983 124.32 152.023 124.92C152.063 125.84 152.183 126.72 152.383 127.64C152.583 128.72 154.223 129.24 154.503 127.92C154.583 127.48 154.663 127.04 154.703 126.6C154.743 126.6 154.743 126.6 154.743 126.56C156.263 122.84 156.543 118.8 157.663 115C157.903 114.08 158.223 113.16 158.623 112.28C158.823 111.84 159.103 111.2 159.703 111.48C160.103 111.68 160.343 112.12 160.503 112.52C161.103 113.8 161.263 115.16 162.263 116.24C163.023 117.08 164.143 117.52 165.223 117.12C165.863 116.84 165.983 115.68 165.183 115.52ZM173.937 117.88C173.137 120.4 171.777 122.8 170.257 124.96C169.777 125.6 169.217 126.24 168.377 126.36C167.697 126.48 167.377 125.8 167.217 125.2C167.057 124.72 167.017 124.12 167.017 123.6C166.897 122 166.857 120.4 166.817 118.8C166.697 115.04 166.617 111.32 166.617 107.56C167.737 107.56 168.817 107.52 169.897 107.44C171.057 107.36 170.857 105.64 169.777 105.6C168.737 105.52 167.697 105.52 166.657 105.48C166.657 104.44 166.657 103.4 166.697 102.36C166.737 100.84 164.217 100.8 164.137 102.36C164.097 103.4 164.057 104.4 164.017 105.44C163.217 105.44 162.377 105.44 161.537 105.44C160.977 105.44 160.577 106.04 160.657 106.6C160.737 107.24 161.337 107.6 161.897 107.6C162.617 107.6 163.297 107.6 163.977 107.6C163.897 111.24 163.857 114.92 163.977 118.6C164.017 120 164.057 121.44 164.137 122.84C164.177 124.16 164.177 125.48 164.857 126.68C165.457 127.84 166.737 128.56 168.057 128.6C169.857 128.6 170.777 126.96 171.497 125.56C172.777 123.16 173.817 120.68 175.017 118.28C175.457 117.44 174.217 116.96 173.937 117.88ZM189.91 118.96C188.27 121.64 186.43 124.6 183.23 125.56C181.75 126.04 180.03 126.16 178.63 125.4C177.43 124.76 176.59 123.6 176.15 122.32C175.23 119.56 175.99 115.84 177.87 113.64C178.83 112.44 180.31 111.64 181.87 111.72C183.31 111.8 184.71 112.8 184.87 114.28C185.07 116.24 183.43 117.76 181.71 118.32C180.03 118.92 178.23 118.76 176.51 118.4C175.91 118.24 175.51 119.2 176.19 119.36C178.27 119.92 180.47 120.24 182.55 119.56C184.31 118.96 185.79 117.68 186.39 115.88C187.03 113.88 186.23 111.84 184.59 110.64C182.51 109.04 179.75 109.2 177.59 110.52C174.15 112.6 172.55 117.44 173.07 121.32C173.63 125.32 176.95 128.64 181.19 128.12C185.83 127.56 188.63 123 190.71 119.32C190.99 118.8 190.19 118.48 189.91 118.96ZM87.1956 167.56C85.4756 167.32 83.7556 167.48 82.0356 167.56C81.2356 167.64 80.4356 167.68 79.6756 167.72C79.7556 163.52 79.6756 159.36 79.5956 155.16C79.5156 150.8 79.4756 146.4 79.4356 142.04C79.3956 141.24 78.8356 140.6 78.0356 140.6C77.2756 140.56 76.3956 141.2 76.3956 142.04C76.4356 146.4 76.4756 150.76 76.4756 155.12C76.5156 159.64 76.3556 164.16 76.7156 168.64C76.7956 169.4 77.3156 169.8 77.9156 169.88C78.0356 169.92 78.1956 169.96 78.3556 169.92C79.6756 169.88 81.0356 169.8 82.3956 169.76C84.0756 169.68 85.7556 169.68 87.3956 169.2C88.1556 168.96 87.9156 167.64 87.1956 167.56ZM105.789 157.96C104.149 160.64 102.309 163.6 99.1091 164.56C97.6291 165.04 95.9091 165.16 94.5091 164.4C93.3091 163.76 92.4691 162.6 92.0291 161.32C91.1091 158.56 91.8691 154.84 93.7491 152.64C94.7091 151.44 96.1891 150.64 97.7491 150.72C99.1891 150.8 100.589 151.8 100.749 153.28C100.949 155.24 99.3091 156.76 97.5891 157.32C95.9091 157.92 94.1091 157.76 92.3891 157.4C91.7891 157.24 91.3891 158.2 92.0691 158.36C94.1491 158.92 96.3491 159.24 98.4291 158.56C100.189 157.96 101.669 156.68 102.269 154.88C102.909 152.88 102.109 150.84 100.469 149.64C98.3891 148.04 95.6291 148.2 93.4691 149.52C90.0291 151.6 88.4291 156.44 88.9491 160.32C89.5091 164.32 92.8291 167.64 97.0691 167.12C101.709 166.56 104.509 162 106.589 158.32C106.869 157.8 106.069 157.48 105.789 157.96ZM121.814 156.52C120.534 158.2 118.614 159.48 116.574 159.6C116.734 157.52 116.574 155.2 115.494 153.4C114.854 152.28 113.654 151.72 112.574 151.96C112.654 151.92 112.694 151.84 112.734 151.72C112.974 151.24 112.734 150.76 112.334 150.48C111.414 149.8 110.134 149.68 109.054 150C107.814 150.32 106.854 151.24 106.214 152.28C104.894 154.4 104.494 157.12 104.574 159.56C104.654 161.8 105.174 164.28 106.734 166C108.534 167.92 111.374 168 113.374 166.36C115.134 164.92 116.134 162.56 116.454 160.36C116.614 160.36 116.734 160.36 116.894 160.32C119.134 160.12 121.094 158.72 122.454 156.96C122.774 156.52 122.134 156.12 121.814 156.52ZM113.454 162.72C112.734 163.84 111.214 165.8 109.694 165.04C108.214 164.32 107.734 162.44 107.454 160.96C107.174 159.28 107.214 157.52 107.574 155.84C107.934 154.28 109.334 150.64 111.614 152.12C111.734 152.2 111.854 152.24 111.974 152.24C111.694 152.4 111.414 152.64 111.214 152.96C110.134 154.44 110.454 156.52 111.414 157.96C112.174 159.12 113.414 159.88 114.734 160.16C114.414 161.08 113.974 161.92 113.454 162.72ZM115.174 158.32C115.134 158.72 115.054 159.08 114.934 159.44C114.614 159.36 114.254 159.24 113.934 159.08C112.534 158.44 111.494 157.04 111.374 155.48C111.294 154.76 111.414 154 111.814 153.4C112.414 152.52 113.414 152.48 114.174 153.24C115.334 154.44 115.374 156.76 115.174 158.32ZM135.513 156.92C134.833 158.24 134.153 159.56 133.433 160.88C133.113 161.52 132.753 162.16 132.393 162.8C132.033 163.48 131.713 164.28 131.113 164.76C130.993 164.72 130.913 164.68 130.833 164.6C130.833 164.32 130.873 164.08 130.873 163.76C130.953 163.16 130.993 162.56 131.033 161.96C131.113 160.68 131.153 159.36 131.153 158.08C131.153 156.84 131.113 155.6 130.993 154.36C130.873 153.08 130.833 151.72 129.993 150.64C128.593 148.88 126.273 150.24 125.313 151.76C124.673 152.76 124.113 153.88 123.633 155C123.633 153.4 123.593 151.76 123.593 150.16C123.593 148.8 121.033 148.72 120.993 150.08C120.913 152.76 120.873 155.44 120.793 158.12C120.753 159.44 120.753 160.76 120.753 162.08C120.753 162.72 120.713 163.32 120.753 163.92C120.793 164.84 120.913 165.72 121.113 166.64C121.313 167.72 122.953 168.24 123.233 166.92C123.793 164.2 123.673 161.4 123.673 158.64C123.673 158.16 123.673 157.72 123.633 157.24C123.713 157.08 123.753 156.92 123.833 156.72C124.233 155.56 126.753 149.12 128.473 151.36C129.033 152.08 128.793 153.28 128.753 154.12C128.713 154.96 128.673 155.84 128.633 156.72C128.593 158.32 128.473 159.92 128.353 161.52C128.273 162.24 128.233 162.92 128.153 163.64C128.113 164.32 128.033 165 128.273 165.64C128.793 167.08 130.993 167.64 131.873 166.24C132.233 165.68 132.393 164.96 132.673 164.36C133.073 163.56 133.473 162.76 133.833 161.96C134.633 160.36 135.433 158.76 136.273 157.2C136.473 156.72 135.753 156.52 135.513 156.92ZM154.423 156.92C153.903 158.6 153.263 160.24 152.503 161.84C152.143 162.6 151.743 163.4 151.263 164.12C151.103 164.4 150.943 164.68 150.703 164.88C149.943 165.56 149.543 165.48 148.743 164.8C148.263 163.6 148.183 162.2 148.143 160.92C148.143 159.52 148.303 158.16 148.623 156.84C148.743 156.36 148.623 156 148.343 155.76C148.343 155.76 148.343 155.76 148.343 155.72C148.703 152.52 146.303 149.52 143.023 149.24C139.863 149 137.263 151.28 135.743 153.88C134.382 156.28 133.822 159.12 134.262 161.88C134.502 163.28 135.022 164.72 136.023 165.76C137.743 167.4 140.342 167.24 142.063 165.76C143.543 164.52 144.543 162.92 145.342 161.2C145.342 161.56 145.383 161.92 145.383 162.28C145.463 163.36 145.622 164.48 146.143 165.44C146.663 166.4 147.743 167.2 148.863 167.24C149.423 167.24 150.023 167 150.463 166.72C151.903 165.84 152.543 164 153.183 162.52C153.983 160.72 154.623 158.92 155.183 157.04C155.303 156.56 154.543 156.52 154.423 156.92ZM145.903 156.36C145.743 157.04 145.583 157.76 145.503 158.48C144.823 160.08 144.023 161.76 142.863 162.96C141.863 163.96 139.743 165.56 138.303 164.48C137.623 163.96 137.383 162.96 137.223 162.2C136.423 158.56 137.702 153.8 141.263 152.04C143.583 150.84 146.303 152.72 146.183 155.32C146.183 155.44 146.223 155.6 146.263 155.72C146.103 155.88 145.983 156.08 145.903 156.36ZM166.648 154.52C164.888 154.2 164.408 152.12 163.568 150.84C163.088 150.08 162.408 149.32 161.488 149.28C159.688 149.2 159.008 151.52 158.608 152.84C157.568 156.04 157.248 159.4 156.408 162.64C156.448 161.32 156.408 159.96 156.408 158.64C156.368 155.8 156.328 153 156.328 150.16C156.328 148.8 153.768 148.72 153.728 150.08C153.648 152.76 153.608 155.44 153.528 158.12C153.488 159.44 153.488 160.76 153.488 162.08C153.488 162.72 153.448 163.32 153.488 163.92C153.528 164.84 153.648 165.72 153.848 166.64C154.048 167.72 155.688 168.24 155.968 166.92C156.048 166.48 156.128 166.04 156.168 165.6C156.208 165.6 156.208 165.6 156.208 165.56C157.728 161.84 158.008 157.8 159.128 154C159.368 153.08 159.688 152.16 160.088 151.28C160.288 150.84 160.568 150.2 161.168 150.48C161.568 150.68 161.808 151.12 161.968 151.52C162.568 152.8 162.728 154.16 163.728 155.24C164.488 156.08 165.608 156.52 166.688 156.12C167.328 155.84 167.448 154.68 166.648 154.52ZM187.962 156.4C187.202 157.68 185.802 158.52 184.322 158.56C183.482 158.6 182.642 158.28 181.842 158.2C181.842 157.72 181.842 157.24 181.842 156.8C181.842 155.12 181.842 153.48 181.882 151.84C181.962 148.52 182.082 145.24 182.322 141.96C182.362 141.16 181.962 140.48 181.122 140.4C180.442 140.28 179.482 140.8 179.402 141.56C179.082 145.4 178.882 149.28 178.762 153.12C178.002 151.64 176.922 150.36 175.322 149.52C172.322 147.92 168.642 148.64 166.762 151.56C165.882 153 165.442 154.6 165.282 156.32C165.042 158.08 164.922 159.96 165.322 161.72C165.722 163.48 166.842 165.08 168.522 165.84C169.962 166.52 171.602 166.44 173.082 165.84C175.762 164.8 177.402 162.56 178.762 160.16C178.762 161.12 178.802 162.08 178.842 163C178.842 164.28 178.882 165.48 179.202 166.72C179.362 167.44 180.362 167.68 180.962 167.48C181.282 167.36 181.602 167.12 181.762 166.84C181.802 166.72 181.842 166.6 181.882 166.52C181.922 166.28 181.922 166.04 181.842 165.84C182.122 165.4 182.002 164.6 181.962 164.08C181.922 162.48 181.882 160.92 181.842 159.32C181.842 159.2 181.842 159.04 181.842 158.92C182.322 159 182.842 159.16 183.322 159.24C184.002 159.36 184.762 159.32 185.442 159.16C186.802 158.8 188.002 157.92 188.722 156.68C188.962 156.2 188.242 156 187.962 156.4ZM173.882 164.2C172.722 164.76 171.322 164.92 170.082 164.52C168.602 164.04 167.962 162.92 167.602 161.48C167.282 160.2 167.442 158.8 167.562 157.48C167.722 156.2 167.882 154.92 168.402 153.72C169.322 151.52 171.362 150.4 173.722 151.08C176.082 151.72 177.682 153.72 178.722 155.92C178.722 156.76 178.722 157.6 178.762 158.48C177.562 160.64 176.202 163.04 173.882 164.2Z" fill="white"/>
</svg>
